<svg xmlns="http://www.w3.org/2000/svg" viewBox="0 0 512 512">
	<path d="M240.8 76.1h29.5c3.3 0 5.9-2.6 5.9-5.9 0-3.3-2.7-5.9-5.9-5.9h-29.5v11.8zm0 28.6h30.4c3.7 0 6.7-3 6.7-6.8 0-3.7-3-6.7-6.7-6.7h-30.4v13.5zM288.2 83c4 3.9 6.5 9.4 6.5 15.4 0 11.8-9.6 21.5-21.5 21.5h-49.3V49.1h48.5c11.4 0 20.6 9.3 20.6 20.7.1 5-1.8 9.6-4.8 13.2M299.6 204.2h-18.1l-5.7-11.8h-39.6l-5.7 11.8h-18.1l35.4-70.8h16.4l35.4 70.8zM256 151.6l-12.4 25.7h24.9L256 151.6z" /><path d="M280 219.4L300.3 219.4 264.4 265.5 264.4 290.3 247.5 290.3 247.5 265.5 211.6 219.4 231.9 219.4 256 251.7z" /><path d="M373.9 219.4L373.9 234.6 326.7 234.6 326.7 246.4 372.2 246.4 372.2 261.6 326.7 261.6 326.7 275.1 373.9 275.1 373.9 290.3 309.8 290.3 309.8 219.4z" /><path d="M426 263.3h-12.7v27h-16.9v-70.8h43.1c12.1 0 21.9 9.9 21.9 21.9 0 10-6.6 18.4-15.7 21l20.8 27.8h-20.2L426 263.3zm11.8-28.7h-24.5v13.5h24.5c3.7 0 6.7-3 6.7-6.7 0-3.8-3-6.8-6.7-6.8M219.5 290.2h-18.1l-5.7-11.8h-39.6l-5.7 11.8h-18.1l35.4-70.8h16.4l35.4 70.8zm-43.6-52.7l-12.4 25.7h24.9l-12.5-25.7zM68.9 246.5h29.5c3.3 0 5.9-2.6 5.9-5.9 0-3.3-2.6-5.9-5.9-5.9H68.9v11.8zm0 28.6h30.4c3.7 0 6.7-3 6.7-6.8 0-3.7-3-6.7-6.7-6.7H68.9v13.5zm47.5-21.7c4 3.9 6.5 9.4 6.5 15.4 0 11.8-9.6 21.5-21.5 21.5H52.1v-70.8h48.5c11.4 0 20.6 9.3 20.6 20.7 0 5-1.8 9.6-4.8 13.2" /><path d="M288 305.4L288 320.6 240.8 320.6 240.8 332.4 286.3 332.4 286.3 347.6 240.8 347.6 240.8 361.1 288 361.1 288 376.2 223.9 376.2 223.9 305.4z" /><path d="M276.2 415c0-3.7-3-6.7-6.7-6.8h-28.7v13.5h28.7c3.7 0 6.7-3 6.7-6.7m-52.3 48.9v-70.8h47.3c12.1.1 21.8 9.9 21.8 21.9 0 9.2-5.6 17.1-13.6 20.3l21.3 28.5h-20.3l-20.2-27h-19.4v27h-16.9z" /><path d="M256 0C114.6 0 0 114.6 0 256s114.6 256 256 256 256-114.6 256-256S397.4 0 256 0zm0 480.3C132.1 480.3 31.7 379.9 31.7 256S132.1 31.7 256 31.7 480.3 132.1 480.3 256 379.9 480.3 256 480.3z" />
    <style>
        path { fill: #000; }
        @media (prefers-color-scheme: dark) { path { fill: #FFF; } }
    </style>
</svg>