<svg xmlns="http://www.w3.org/2000/svg" viewBox="0 0 750 512"><defs><style>.cls-1{fill:#da6c20;}.cls-2{fill:#00abff;}.cls-3{fill:#7ec60d;}.cls-4{fill:#e14f4c;}.cls-5{fill:#9c1273;}.cls-6{fill:#002b4a;}</style></defs><title>Artboard 2</title><path class="cls-1" d="M345.52,72.9a233.43,233.43,0,0,0-76.88,100.2L236.83,162A267.16,267.16,0,0,1,325.27,46Z"/><path class="cls-2" d="M750,258.73c0,116.76-75.72,216.14-180.62,251.68l-10.65-31.93c91.53-31.08,157.6-117.84,157.6-219.75,0-108.1-74.31-199.14-174.52-224.8l9.46-32.34C665.47,31.35,750,135.35,750,258.73Z"/><path class="cls-3" d="M699,258.73a214.46,214.46,0,0,1-91.67,175.81l-17.64-28.76A180.83,180.83,0,0,0,657.8,207.2l32.76-8A214.18,214.18,0,0,1,699,258.73Z"/><path class="cls-4" d="M588.23,71,570,99.37A180.78,180.78,0,0,0,335.6,155.68L306.91,138A214.38,214.38,0,0,1,588.23,71Z"/><path class="cls-5" d="M646.42,258.73a160.58,160.58,0,0,1-14.54,66.94l-30.2-14.89a127.39,127.39,0,0,0,11-54.2c-1.12-68-55.89-123.86-123.9-126.21a127.88,127.88,0,0,0-90.39,33l-24.2-23.45A161.3,161.3,0,0,1,484.29,96.61C573.68,96.61,646.42,169.33,646.42,258.73Z"/><path class="cls-6" d="M4.64,472.92H16.49v1.89H11.61v17H9.52v-17H4.64Z"/><path class="cls-6" d="M31.17,491.79H29.08V472.92h4.86c4,0,6.46,1,6.34,5.38a4.06,4.06,0,0,1-3.63,4.11v0c2.44.22,3.05,1,3.35,3.52.08,1.41.2,2.79.4,4.2.08.35.23,1.18.73,1.18v.43H38.69A17.41,17.41,0,0,1,38,487c0-1.89-.76-3.5-3.22-3.5H31.17Zm0-10.19h3.29c1,0,3.7-.18,3.65-3.47s-2.59-3.32-4-3.32H31.17Z"/><path class="cls-6" d="M58,472.92h2.77l5.31,18.87H63.78l-1.48-5.43h-6L55,491.79H52.64Zm1.36,1.51h-.05l-2.49,10h5Z"/><path class="cls-6" d="M87.77,472.92h2.09v18.87H86.44l-5.29-15.1a14.74,14.74,0,0,1-.7-2.84h0c0,1,0,1.94,0,2.9v15H78.36V472.92h3.4l5.36,15.45c.22.58.4,1.18.65,2.06h0c0-.68,0-1.41,0-2.11Z"/><path class="cls-6" d="M111.93,477.88c.15-2-.9-3.45-3-3.45-3,0-3.37,1.91-3.37,3.37a2.48,2.48,0,0,0,1.78,2.57l3,1.13c3.57,1.33,4.23,2.59,4.23,5.08,0,3.58-2.24,5.67-5.87,5.67a5.16,5.16,0,0,1-5.16-3,10.74,10.74,0,0,1-.4-3.45h2.09c-.1,2.8.43,4.56,3.57,4.56,2.12,0,3.6-1.08,3.6-3.3,0-2.87-1.16-2.89-3.07-3.62-1-.4-2.69-.93-3.7-1.46-1.78-.91-2.24-2.42-2.24-4.28a5,5,0,0,1,5.26-5.16c3.45,0,5.56,1.79,5.36,5.34Z"/><path class="cls-6" d="M127.79,491.79V472.92h8.86v1.89h-6.77V481h6.29v1.88h-6.29v8.91Z"/><path class="cls-6" d="M154.92,472.54c5.51,0,6.19,5.09,6.17,9.41,0,5.24-.71,10.3-6.22,10.3s-6.16-5.06-6.21-10.3C148.66,477.63,149.31,472.54,154.92,472.54Zm-.1,1.89c-3.22,0-4,3.37-4,7.57,0,5.46.58,8.36,4.05,8.36s4-2.9,4-8.36C159,477.8,158.14,474.43,154.82,474.43Z"/><path class="cls-6" d="M176.87,491.79h-2.09V472.92h4.86c4,0,6.46,1,6.34,5.38a4.05,4.05,0,0,1-3.62,4.11v0c2.44.22,3,1,3.34,3.52.08,1.41.2,2.79.4,4.2.08.35.23,1.18.74,1.18v.43h-2.45a17.41,17.41,0,0,1-.65-4.8c0-1.89-.76-3.5-3.22-3.5h-3.65Zm0-10.19h3.3c1,0,3.69-.18,3.64-3.47s-2.59-3.32-4-3.32h-2.94Z"/><path class="cls-6" d="M212.05,472.92h3.68v18.87h-2.09V476.24c0-.8.05-1.58,0-2.39h0c-.23,1.11-.4,1.81-.58,2.54l-3.95,15.4h-2.49l-3.95-15.62c-.18-.66-.33-1.29-.56-2.32H202c0,.81.05,1.64.05,2.44v15.5H200V472.92h3.69l3.7,14.72a16.73,16.73,0,0,1,.41,2.79h.05a27.19,27.19,0,0,1,.47-2.82Z"/><path class="cls-6" d="M233.37,472.92h2.77l5.31,18.87h-2.31l-1.49-5.43h-6l-1.39,5.43H228Zm1.36,1.51h0l-2.49,10h5Z"/><path class="cls-6" d="M263.12,472.92h2.09v18.87h-3.42l-5.29-15.1a15.51,15.51,0,0,1-.7-2.84h-.05c0,1,.05,1.94.05,2.9v15h-2.09V472.92h3.4l5.36,15.45c.22.58.4,1.18.65,2.06h.05c0-.68-.05-1.41-.05-2.11Z"/><path class="cls-6" d="M279.28,491.79V472.92h5.19c5.88,0,6.69,4.78,6.54,9.44s-1.06,9.43-6.17,9.43Zm2.09-1.89h3.35c3.07,0,4.33-2.29,4.12-7.92-.15-4.3-.75-7.17-4.12-7.17h-3.35Z"/><path class="cls-6" d="M310.41,472.54c5.52,0,6.2,5.09,6.17,9.41,0,5.24-.71,10.3-6.22,10.3s-6.16-5.06-6.21-10.3C304.15,477.63,304.8,472.54,310.41,472.54Zm-.1,1.89c-3.22,0-4,3.37-4,7.57,0,5.46.58,8.36,4.05,8.36s4-2.9,4.06-8.36C314.44,477.8,313.63,474.43,310.31,474.43Z"/><path class="cls-6" d="M346.33,491.79V472.92h9.44v1.89h-7.35v6.24h6.89v1.88h-6.89v7h7.4v1.89Z"/><path class="cls-6" d="M369.21,491.79V472.92h2.09v17H379v1.89Z"/><path class="cls-6" d="M420.12,472.92h3.68v18.87h-2.09V476.24c0-.8.05-1.58,0-2.39h0c-.23,1.11-.4,1.81-.58,2.54l-3.95,15.4h-2.49l-3.95-15.62c-.18-.66-.33-1.29-.55-2.32h-.06c0,.81.06,1.64.06,2.44v15.5h-2.09V472.92h3.7l3.69,14.72a15.74,15.74,0,0,1,.41,2.79h0a24.79,24.79,0,0,1,.48-2.82Z"/><path class="cls-6" d="M441.44,472.92h2.77l5.31,18.87h-2.31l-1.49-5.43h-6l-1.39,5.43h-2.31Zm1.36,1.51h-.05l-2.49,10h5Z"/><path class="cls-6" d="M471.19,472.92h2.09v18.87h-3.42l-5.28-15.1a14.7,14.7,0,0,1-.71-2.84h-.05c0,1,.05,1.94.05,2.9v15h-2.09V472.92h3.4l5.36,15.45c.23.58.4,1.18.65,2.06h.05c0-.68-.05-1.41-.05-2.11Zm.63-4.86a2.68,2.68,0,0,1-2.56,2.75,6.3,6.3,0,0,1-1.79-.46,5.84,5.84,0,0,0-1.84-.5,1.3,1.3,0,0,0-1.16,1.13h-1.2a2.68,2.68,0,0,1,2.56-2.74,6.63,6.63,0,0,1,1.79.45,5.86,5.86,0,0,0,1.84.51,1.28,1.28,0,0,0,1.15-1.14Z"/><path class="cls-6" d="M491,472.92h2.77L499,491.79h-2.32l-1.48-5.43h-6l-1.39,5.43h-2.31Zm1.36,1.51h-.05l-2.49,10h5Z"/><path class="cls-6" d="M520.7,472.92h2.09v18.87h-3.42l-5.29-15.1a14.74,14.74,0,0,1-.7-2.84h0c0,1,0,1.94,0,2.9v15h-2.09V472.92h3.4l5.36,15.45c.22.58.4,1.18.65,2.06h0c0-.68,0-1.41,0-2.11Z"/><path class="cls-6" d="M540.46,472.92h2.77l5.31,18.87h-2.32l-1.48-5.43h-6l-1.38,5.43h-2.32Zm1.36,1.51h-.05l-2.49,10h5Z"/><path class="cls-6" d="M18.61,422.86v2.72a31.26,31.26,0,0,0,.51,5.88,10.28,10.28,0,0,0,1.94,4.45,9.66,9.66,0,0,0,3.75,2.85,15.07,15.07,0,0,0,6.07,1A11.85,11.85,0,0,0,38.57,437Q42,434.24,42,428.42a15.39,15.39,0,0,0-.84-5.36A10.6,10.6,0,0,0,38.38,419a19.78,19.78,0,0,0-5.11-3.3,71.9,71.9,0,0,0-7.82-3,63.17,63.17,0,0,1-10.72-4.59,30.84,30.84,0,0,1-7.56-5.75,20.15,20.15,0,0,1-4.46-7.49,32,32,0,0,1-1.42-10.08q0-13.58,7.63-20.35t20.93-6.79A45.69,45.69,0,0,1,41.28,359a24.11,24.11,0,0,1,9,4.39,20.56,20.56,0,0,1,5.94,7.76,27.29,27.29,0,0,1,2.13,11.3V385H40.57q0-6.6-2.32-10.15c-1.56-2.36-4.14-3.55-7.76-3.55a12.75,12.75,0,0,0-5.16.91A8.78,8.78,0,0,0,22,374.6,8.29,8.29,0,0,0,20.35,378a17.64,17.64,0,0,0-.45,4,13.31,13.31,0,0,0,1.81,7.18q1.8,2.9,7.75,5.36l14.34,6.2a47.35,47.35,0,0,1,8.59,4.84A23.27,23.27,0,0,1,57.82,411a18.23,18.23,0,0,1,2.78,6.4,35.58,35.58,0,0,1,.77,7.75q0,14.61-8.46,21.45t-23.58,6.85q-15.76,0-22.55-7T0,426.61v-3.75Z"/><path class="cls-6" d="M66.15,405.55a179.74,179.74,0,0,1,1-19.32,42.8,42.8,0,0,1,4.27-15.18,23.84,23.84,0,0,1,9.49-9.88q6.21-3.56,16.67-3.56t16.67,3.56a23.92,23.92,0,0,1,9.5,9.88A43,43,0,0,1,128,386.23a177.19,177.19,0,0,1,1,19.32,177.19,177.19,0,0,1-1,19.32,43,43,0,0,1-4.26,15.18,23.92,23.92,0,0,1-9.5,9.88q-6.21,3.56-16.67,3.56t-16.67-3.56a23.84,23.84,0,0,1-9.49-9.88,42.8,42.8,0,0,1-4.27-15.18A179.74,179.74,0,0,1,66.15,405.55Zm18.61,0q0,9.3.45,15.83A44,44,0,0,0,87,432a11.81,11.81,0,0,0,3.88,5.95,10.86,10.86,0,0,0,6.65,1.87,10.89,10.89,0,0,0,6.66-1.87,11.8,11.8,0,0,0,3.87-5.95,43.52,43.52,0,0,0,1.81-10.59q.45-6.53.45-15.83t-.45-15.76a44.43,44.43,0,0,0-1.81-10.6,11.86,11.86,0,0,0-3.87-6,11,11,0,0,0-6.66-1.87,10.92,10.92,0,0,0-6.65,1.87,11.87,11.87,0,0,0-3.88,6,44.94,44.94,0,0,0-1.81,10.6Q84.76,396.26,84.76,405.55Z"/><path class="cls-6" d="M137.35,451.68V359.42H156v77h33v15.25Z"/><path class="cls-6" d="M212,359.42v64.35a41.86,41.86,0,0,0,.45,6.39,14.4,14.4,0,0,0,1.68,5,9,9,0,0,0,3.36,3.36,12.29,12.29,0,0,0,10.72,0,8.89,8.89,0,0,0,3.36-3.36,14.4,14.4,0,0,0,1.68-5,41.86,41.86,0,0,0,.45-6.39V359.42h18.61v64.35q0,8.79-2.45,14.53a23.24,23.24,0,0,1-6.59,9.11,24.29,24.29,0,0,1-9.44,4.72,44.27,44.27,0,0,1-11,1.36,50.75,50.75,0,0,1-11-1.17,21.83,21.83,0,0,1-16-13.5q-2.46-5.74-2.46-15.05V359.42Z"/><path class="cls-6" d="M315.52,359.42v15.25H295.37v77H276.76v-77H256.6V359.42Z"/><path class="cls-6" d="M321.85,451.68V359.42h18.61v92.26Z"/><path class="cls-6" d="M349.76,405.55a177.19,177.19,0,0,1,1-19.32A43,43,0,0,1,355,371.05a23.92,23.92,0,0,1,9.5-9.88q6.21-3.56,16.67-3.56t16.67,3.56a23.84,23.84,0,0,1,9.49,9.88,42.8,42.8,0,0,1,4.27,15.18,192.89,192.89,0,0,1,0,38.64,42.8,42.8,0,0,1-4.27,15.18,23.84,23.84,0,0,1-9.49,9.88q-6.21,3.56-16.67,3.56t-16.67-3.56a23.92,23.92,0,0,1-9.5-9.88,43,43,0,0,1-4.26-15.18A177.19,177.19,0,0,1,349.76,405.55Zm18.61,0q0,9.3.45,15.83A43.52,43.52,0,0,0,370.63,432a11.73,11.73,0,0,0,3.87,5.95,12.78,12.78,0,0,0,13.31,0,11.74,11.74,0,0,0,3.88-5.95,44.51,44.51,0,0,0,1.81-10.59q.45-6.53.45-15.83t-.45-15.76a45.46,45.46,0,0,0-1.81-10.6,11.8,11.8,0,0,0-3.88-6,12.78,12.78,0,0,0-13.31,0,11.79,11.79,0,0,0-3.87,6,44.43,44.43,0,0,0-1.81,10.6Q368.37,396.26,368.37,405.55Z"/><path class="cls-6" d="M442.4,359.42l22.48,63.19h.26V359.42H482.2v92.26H461l-22.74-64.61H438v64.61H421V359.42Z"/><path class="cls-6" d="M507.52,422.86v2.72a30.41,30.41,0,0,0,.52,5.88,10.16,10.16,0,0,0,1.94,4.45,9.55,9.55,0,0,0,3.74,2.85,15.12,15.12,0,0,0,6.08,1,11.83,11.83,0,0,0,7.68-2.78q3.43-2.77,3.43-8.59a15.39,15.39,0,0,0-.84-5.36,10.63,10.63,0,0,0-2.78-4.07,19.54,19.54,0,0,0-5.1-3.3,72.72,72.72,0,0,0-7.82-3,63.17,63.17,0,0,1-10.72-4.59,30.84,30.84,0,0,1-7.56-5.75,20,20,0,0,1-4.46-7.49,32,32,0,0,1-1.42-10.08q0-13.58,7.62-20.35t20.93-6.79A45.71,45.71,0,0,1,530.2,359a24.06,24.06,0,0,1,9,4.39,20.69,20.69,0,0,1,6,7.76,27.29,27.29,0,0,1,2.13,11.3V385H529.49q0-6.6-2.33-10.15c-1.55-2.36-4.13-3.55-7.75-3.55a12.8,12.8,0,0,0-5.17.91A8.67,8.67,0,0,0,511,374.6a8.29,8.29,0,0,0-1.68,3.43,17.1,17.1,0,0,0-.46,4,13.4,13.4,0,0,0,1.81,7.18q1.81,2.9,7.76,5.36l14.34,6.2a47.35,47.35,0,0,1,8.59,4.84,23.27,23.27,0,0,1,5.43,5.43,18,18,0,0,1,2.77,6.4,35.55,35.55,0,0,1,.78,7.75q0,14.61-8.46,21.45t-23.58,6.85q-15.76,0-22.55-7t-6.78-19.84v-3.75Z"/><path class="cls-6" d="M3.2,192.29l56.34.05q18.85,0,29.54,9.76t10.67,29.24q0,15.25-6.17,24.88T74.51,268.6V269Q82.34,270.09,87,273a19.37,19.37,0,0,1,7.3,8.27,40.79,40.79,0,0,1,3.49,13.66q.83,8.26,1,20.34a119.78,119.78,0,0,0,1.36,18.42q1.16,6.36,5.39,8.69v1.27l-33,0a16.23,16.23,0,0,1-3-7.31,82.58,82.58,0,0,1-.84-8.58l-.82-29q-.42-8.9-4.54-14t-13.45-5.09l-16.31,0,0,64-30.5,0Zm30.44,66.1,12.71,0q11,0,16.95-5.18t6-17.47q0-21-21.17-21l-14.4,0Z"/><path class="cls-6" d="M146.17,192.41l37.7,0,39.89,151.26-31.77,0-7-32-40.24,0-7,32-31.77,0Zm3.94,94.26,29.65,0-14.55-68h-.43Z"/><path class="cls-6" d="M231.74,192.49l50,0q15.88,0,25.62,5.22a36.88,36.88,0,0,1,15.13,14.83,65.89,65.89,0,0,1,7.29,23.2,219.27,219.27,0,0,1,1.88,30.29,214.6,214.6,0,0,1-2.47,34.74q-2.44,14.61-8.38,24.13a36.73,36.73,0,0,1-15.9,14.18q-10,4.65-25.21,4.64l-48.08-.05Zm30.38,128.8h13.56q7.83,0,12.81-2.74a18.71,18.71,0,0,0,7.85-9.1q2.87-6.34,3.82-16.73t1-25.84q0-12.92-.83-22.55a57.08,57.08,0,0,0-3.48-16.21,20.14,20.14,0,0,0-7.83-9.86Q283.83,215,275.13,215H262.21Z"/><path class="cls-6" d="M395.53,343.86l.13-151.22,30.5,0L426,343.89Z"/><path class="cls-6" d="M479.75,192.71l36.76,103.6h.42l.1-103.57,28,0L544.85,344l-34.74,0L472.93,238h-.42l-.1,105.9-28,0,.13-151.22Z"/></svg>