<svg xmlns="http://www.w3.org/2000/svg" viewBox="0 0 392.08 266">
  <defs>
    <style>
      .cls-1 {fill: #da6c20;}
      .cls-2 {fill: #7ec60d;}
      .cls-3 {fill: #e14f4c;}
      .cls-4 {fill: #002b4a;}
      .cls-5 {fill: #00abff;}
      .cls-6 {fill: #9c1273;}
    </style>
  </defs>
  <path class="cls-1" d="M180.63,37.28c-17.8,13.32-31.84,31.43-40.19,52.38l-16.63-5.83c9.53-24.26,25.68-45.22,46.23-60.61l10.59,14.06Z"/>
  <path class="cls-5" d="M392.08,134.43c0,61.04-39.58,112.99-94.42,131.57l-5.57-16.69c47.85-16.25,82.39-61.6,82.39-114.88,0-56.51-38.85-104.1-91.24-117.52l4.95-16.91c59.7,15.56,103.89,69.93,103.89,134.43"/>
  <path class="cls-2" d="M365.4,134.43c0,37.97-18.96,71.61-47.92,91.91l-9.22-15.03c23.92-17.18,39.53-45.24,39.53-76.88,0-9.36-1.37-18.39-3.92-26.94l17.13-4.17c2.85,9.89,4.4,20.32,4.4,31.11"/>
  <path class="cls-3" d="M307.51,36.27l-9.52,14.85c-13.35-7.21-28.61-11.31-44.82-11.31-32.17,0-60.64,16.14-77.73,40.75l-15-9.24c20.21-29.62,54.23-49.11,92.73-49.11,19.7,0,38.22,5.11,54.34,14.06"/>
  <path class="cls-6" d="M337.93,134.43c0,12.48-2.72,24.32-7.6,34.99l-15.78-7.78c3.85-8.64,5.93-18.24,5.77-28.33-.59-35.57-29.22-64.75-64.77-65.98-18.17-.63-34.81,6.02-47.25,17.24l-12.65-12.26c15.11-14.03,35.33-22.63,57.54-22.63,46.73,0,84.75,38.01,84.75,84.75"/>
  <polygon class="cls-4" points="2.43 246.4 8.62 246.4 8.62 247.39 6.07 247.39 6.07 256.26 4.98 256.26 4.98 247.39 2.43 247.39 2.43 246.4"/>
  <path class="cls-4" d="M16.29,256.26h-1.09v-9.87h2.54c2.07,0,3.38.54,3.32,2.82-.04,1.16-.75,1.99-1.89,2.14v.03c1.28.12,1.59.53,1.75,1.84.04.74.11,1.46.21,2.2.04.18.12.62.38.62v.22h-1.28c-.24-.63-.34-1.85-.34-2.51,0-.99-.4-1.83-1.68-1.83h-1.91v4.34ZM16.29,250.94h1.72c.51-.01,1.93-.09,1.91-1.81-.03-1.7-1.36-1.74-2.09-1.74h-1.54v3.55Z"/>
  <path class="cls-4" d="M30.33,246.4h1.45l2.78,9.86h-1.21l-.78-2.84h-3.12l-.72,2.84h-1.21l2.81-9.86ZM31.04,247.19h-.03l-1.3,5.25h2.6l-1.27-5.25Z"/>
  <path class="cls-4" d="M45.88,246.4h1.09v9.87h-1.79l-2.76-7.89c-.16-.45-.28-.9-.37-1.49h-.03c.01.5.03,1.01.03,1.51v7.87h-1.09v-9.87h1.77l2.8,8.08c.12.3.21.62.34,1.08h.03c-.01-.35-.03-.74-.03-1.1v-8.05Z"/>
  <path class="cls-4" d="M58.52,248.99c.08-1.03-.47-1.8-1.57-1.8-1.59,0-1.76,1-1.76,1.76,0,.68.3,1.1.93,1.34l1.57.59c1.87.7,2.21,1.36,2.21,2.66,0,1.87-1.17,2.96-3.07,2.96-.97,0-2.13-.28-2.7-1.57-.21-.49-.2-1.28-.21-1.8h1.09c-.05,1.46.22,2.38,1.87,2.38,1.11,0,1.88-.57,1.88-1.72,0-1.5-.61-1.51-1.6-1.89-.54-.21-1.41-.49-1.93-.76-.93-.47-1.17-1.26-1.17-2.24,0-1.63,1.14-2.7,2.75-2.7,1.8,0,2.91.94,2.8,2.79h-1.09Z"/>
  <polygon class="cls-4" points="66.81 256.26 66.81 246.4 71.44 246.4 71.44 247.39 67.9 247.39 67.9 250.62 71.19 250.62 71.19 251.61 67.9 251.61 67.9 256.26 66.81 256.26"/>
  <path class="cls-4" d="M80.99,246.2c2.88,0,3.24,2.66,3.22,4.92-.01,2.74-.37,5.38-3.25,5.38s-3.22-2.64-3.25-5.38c0-2.26.34-4.92,3.28-4.92M80.94,247.19c-1.68,0-2.1,1.76-2.09,3.96.01,2.85.3,4.37,2.12,4.37s2.11-1.51,2.12-4.37c.01-2.2-.41-3.96-2.14-3.96"/>
  <path class="cls-4" d="M92.46,256.26h-1.09v-9.87h2.54c2.07,0,3.38.54,3.32,2.82-.04,1.16-.75,1.99-1.9,2.14v.03c1.28.12,1.59.53,1.75,1.84.04.74.11,1.46.21,2.2.04.18.12.62.38.62v.22h-1.28c-.24-.63-.34-1.85-.34-2.51,0-.99-.39-1.83-1.68-1.83h-1.91v4.34ZM92.46,250.94h1.72c.51-.01,1.93-.09,1.91-1.81-.03-1.7-1.36-1.74-2.09-1.74h-1.54v3.55Z"/>
  <path class="cls-4" d="M110.86,246.4h1.92v9.87h-1.09v-8.13c0-.42.03-.83,0-1.25h-.03c-.12.58-.21.95-.3,1.33l-2.07,8.05h-1.3l-2.07-8.17c-.09-.34-.17-.67-.29-1.21h-.03c0,.42.03.85.03,1.28v8.1h-1.09v-9.87h1.93l1.93,7.7c.11.42.16.83.21,1.46h.03c.07-.5.13-.99.25-1.47l1.96-7.68Z"/>
  <path class="cls-4" d="M122,246.4h1.45l2.78,9.86h-1.21l-.78-2.84h-3.12l-.72,2.84h-1.21l2.81-9.86ZM122.71,247.19h-.03l-1.3,5.25h2.6l-1.28-5.25Z"/>
  <path class="cls-4" d="M137.55,246.4h1.09v9.87h-1.79l-2.76-7.89c-.16-.45-.27-.9-.37-1.49h-.03c.01.5.03,1.01.03,1.51v7.87h-1.09v-9.87h1.78l2.8,8.08c.12.3.21.62.34,1.08h.02c-.01-.35-.02-.74-.02-1.1v-8.05Z"/>
  <path class="cls-4" d="M146,256.26v-9.86h2.71c3.08,0,3.5,2.5,3.42,4.93-.08,2.41-.55,4.93-3.22,4.93h-2.91ZM147.09,255.28h1.75c1.6,0,2.26-1.2,2.16-4.14-.08-2.25-.39-3.75-2.16-3.75h-1.75v7.89Z"/>
  <path class="cls-4" d="M162.28,246.2c2.88,0,3.24,2.66,3.22,4.92-.01,2.74-.37,5.38-3.25,5.38s-3.22-2.64-3.25-5.38c0-2.26.34-4.92,3.28-4.92M162.22,247.19c-1.68,0-2.11,1.76-2.09,3.96.01,2.85.3,4.37,2.12,4.37s2.11-1.51,2.12-4.37c.01-2.2-.41-3.96-2.14-3.96"/>
  <polygon class="cls-4" points="181.05 256.26 181.05 246.4 185.98 246.4 185.98 247.39 182.14 247.39 182.14 250.65 185.75 250.65 185.75 251.63 182.14 251.63 182.14 255.28 186.01 255.28 186.01 256.26 181.05 256.26"/>
  <polygon class="cls-4" points="193.01 256.26 193.01 246.4 194.1 246.4 194.1 255.28 198.13 255.28 198.13 256.26 193.01 256.26"/>
  <path class="cls-4" d="M219.63,246.4h1.92v9.87h-1.09v-8.13c0-.42.03-.83,0-1.25h-.02c-.12.58-.21.95-.3,1.33l-2.07,8.05h-1.3l-2.07-8.17c-.09-.34-.17-.67-.29-1.21h-.03c0,.42.03.85.03,1.28v8.1h-1.09v-9.87h1.93l1.93,7.7c.1.42.16.83.21,1.46h.03c.07-.5.13-.99.25-1.47l1.96-7.68Z"/>
  <path class="cls-4" d="M230.77,246.4h1.45l2.78,9.86h-1.21l-.78-2.84h-3.12l-.72,2.84h-1.21l2.82-9.86ZM231.48,247.19h-.03l-1.3,5.25h2.6l-1.28-5.25Z"/>
  <path class="cls-4" d="M246.33,246.4h1.09v9.86h-1.79l-2.76-7.89c-.16-.45-.28-.9-.37-1.49h-.03c.01.5.03,1.01.03,1.51v7.86h-1.09v-9.86h1.77l2.8,8.08c.12.3.21.62.34,1.08h.03c-.01-.35-.03-.74-.03-1.1v-8.05ZM246.65,243.86c-.07.75-.51,1.43-1.34,1.43-.28,0-.67-.14-.93-.24-.29-.1-.65-.26-.96-.26s-.58.3-.61.59h-.63c.07-.75.51-1.43,1.34-1.43.28,0,.67.15.93.24.29.1.64.26.96.26s.58-.3.6-.59h.63Z"/>
  <path class="cls-4" d="M256.65,246.4h1.45l2.78,9.86h-1.21l-.78-2.84h-3.12l-.72,2.84h-1.21l2.82-9.86ZM257.36,247.19h-.03l-1.3,5.25h2.6l-1.27-5.25Z"/>
  <path class="cls-4" d="M272.21,246.4h1.09v9.87h-1.79l-2.76-7.89c-.16-.45-.28-.9-.37-1.49h-.03c.01.5.03,1.01.03,1.51v7.87h-1.09v-9.87h1.77l2.8,8.08c.12.3.21.62.34,1.08h.03c-.01-.35-.03-.74-.03-1.1v-8.05Z"/>
  <path class="cls-4" d="M282.53,246.4h1.45l2.78,9.86h-1.21l-.78-2.84h-3.12l-.72,2.84h-1.21l2.81-9.86ZM283.25,247.19h-.03l-1.3,5.25h2.6l-1.27-5.25Z"/>
  <path class="cls-4" d="M9.73,220.23v1.42c0,1.13.09,2.15.27,3.07.18.92.52,1.7,1.01,2.33.49.63,1.15,1.13,1.96,1.49.81.36,1.87.54,3.18.54,1.49,0,2.82-.48,4.02-1.45,1.19-.97,1.79-2.47,1.79-4.49,0-1.08-.15-2.01-.44-2.8-.29-.79-.78-1.5-1.45-2.13-.68-.63-1.57-1.2-2.67-1.72-1.1-.52-2.46-1.05-4.09-1.59-2.16-.72-4.03-1.52-5.61-2.4-1.58-.88-2.9-1.88-3.95-3.01-1.06-1.12-1.83-2.43-2.33-3.92-.5-1.48-.74-3.24-.74-5.27,0-4.73,1.33-8.27,3.99-10.64,2.66-2.36,6.3-3.55,10.94-3.55,2.16,0,4.15.24,5.98.71,1.82.47,3.4,1.24,4.73,2.3,1.33,1.06,2.36,2.41,3.11,4.05.74,1.64,1.11,3.61,1.11,5.91v1.35h-9.32c0-2.3-.4-4.06-1.21-5.3-.81-1.24-2.16-1.86-4.05-1.86-1.08,0-1.98.16-2.7.47-.72.31-1.29.73-1.72,1.25-.43.52-.72,1.11-.88,1.79-.16.68-.24,1.37-.24,2.09,0,1.49.32,2.74.95,3.75.63,1.01,1.98,1.95,4.05,2.8l7.5,3.24c1.8.81,3.3,1.65,4.49,2.53,1.19.88,2.14,1.82,2.84,2.84.7,1.01,1.18,2.13,1.45,3.34.27,1.22.4,2.57.4,4.05,0,5.09-1.48,8.83-4.42,11.21-2.95,2.39-7.06,3.58-12.33,3.58s-9.42-1.23-11.79-3.68c-2.36-2.45-3.55-5.91-3.55-10.37v-1.96h9.73Z"/>
  <path class="cls-4" d="M34.58,211.18c0-3.65.17-7.01.51-10.1.34-3.08,1.08-5.73,2.23-7.94,1.15-2.21,2.8-3.93,4.97-5.17,2.16-1.24,5.06-1.86,8.71-1.86s6.55.62,8.71,1.86c2.16,1.24,3.82,2.96,4.96,5.17,1.15,2.21,1.89,4.85,2.23,7.94.34,3.08.51,6.45.51,10.1s-.17,7.01-.51,10.1c-.34,3.09-1.08,5.73-2.23,7.94-1.15,2.21-2.8,3.93-4.96,5.17-2.16,1.24-5.07,1.86-8.71,1.86s-6.55-.62-8.71-1.86c-2.16-1.24-3.82-2.96-4.97-5.17-1.15-2.21-1.89-4.85-2.23-7.94-.34-3.08-.51-6.45-.51-10.1M44.31,211.18c0,3.24.08,6,.24,8.27.16,2.28.47,4.12.95,5.54.47,1.42,1.15,2.45,2.02,3.11.88.65,2.04.98,3.48.98s2.6-.32,3.48-.98c.88-.65,1.55-1.69,2.03-3.11.47-1.42.79-3.26.95-5.54.16-2.27.24-5.03.24-8.27s-.08-5.99-.24-8.24c-.16-2.25-.47-4.1-.95-5.54s-1.15-2.49-2.03-3.14c-.88-.65-2.04-.98-3.48-.98s-2.6.33-3.48.98c-.88.65-1.55,1.7-2.02,3.14-.47,1.44-.79,3.29-.95,5.54-.16,2.25-.24,5-.24,8.24"/>
  <polygon class="cls-4" points="71.8 235.29 71.8 187.07 81.53 187.07 81.53 227.32 98.75 227.32 98.75 235.29 71.8 235.29"/>
  <path class="cls-4" d="M110.84,187.07v33.64c0,1.22.08,2.33.24,3.34.16,1.01.45,1.89.88,2.63.43.74,1.01,1.33,1.76,1.76.74.43,1.68.64,2.8.64s2.06-.21,2.8-.64c.74-.43,1.33-1.01,1.76-1.76.43-.74.72-1.62.88-2.63.16-1.01.24-2.13.24-3.34v-33.64h9.73v33.64c0,3.06-.43,5.6-1.28,7.6-.86,2-2.01,3.59-3.45,4.76-1.44,1.17-3.08,1.99-4.93,2.46-1.85.47-3.76.71-5.74.71s-3.9-.2-5.74-.61c-1.85-.41-3.49-1.18-4.93-2.33-1.44-1.15-2.59-2.72-3.44-4.73-.86-2-1.28-4.63-1.28-7.87v-33.64h9.73Z"/>
  <polygon class="cls-4" points="164.95 187.07 164.95 195.04 154.41 195.04 154.41 235.29 144.68 235.29 144.68 195.04 134.14 195.04 134.14 187.07 164.95 187.07"/>
  <rect class="cls-4" x="168.25" y="187.07" width="9.73" height="48.23"/>
  <path class="cls-4" d="M182.84,211.18c0-3.65.17-7.01.51-10.1.34-3.08,1.08-5.73,2.23-7.94,1.15-2.21,2.8-3.93,4.96-5.17,2.16-1.24,5.07-1.86,8.71-1.86s6.55.62,8.71,1.86c2.16,1.24,3.82,2.96,4.96,5.17,1.15,2.21,1.89,4.85,2.23,7.94.34,3.08.51,6.45.51,10.1s-.17,7.01-.51,10.1c-.34,3.09-1.08,5.73-2.23,7.94-1.15,2.21-2.8,3.93-4.96,5.17-2.16,1.24-5.07,1.86-8.71,1.86s-6.55-.62-8.71-1.86c-2.16-1.24-3.82-2.96-4.96-5.17-1.15-2.21-1.89-4.85-2.23-7.94-.34-3.08-.51-6.45-.51-10.1M192.57,211.18c0,3.24.08,6,.24,8.27.16,2.28.47,4.12.95,5.54.47,1.42,1.15,2.45,2.03,3.11.88.65,2.04.98,3.48.98s2.6-.32,3.48-.98c.88-.65,1.55-1.69,2.03-3.11.47-1.42.79-3.26.95-5.54.16-2.27.24-5.03.24-8.27s-.08-5.99-.24-8.24c-.16-2.25-.47-4.1-.95-5.54-.47-1.44-1.15-2.49-2.03-3.14-.88-.65-2.04-.98-3.48-.98s-2.6.33-3.48.98c-.88.65-1.55,1.7-2.03,3.14-.47,1.44-.79,3.29-.95,5.54-.16,2.25-.24,5-.24,8.24"/>
  <polygon class="cls-4" points="231.27 187.07 243.03 220.1 243.16 220.1 243.16 187.07 252.08 187.07 252.08 235.29 241 235.29 229.11 201.52 228.98 201.52 228.98 235.29 220.06 235.29 220.06 187.07 231.27 187.07"/>
  <path class="cls-4" d="M265.32,220.23v1.42c0,1.13.09,2.15.27,3.07.18.92.52,1.7,1.01,2.33.49.63,1.15,1.13,1.96,1.49.81.36,1.87.54,3.18.54,1.49,0,2.82-.48,4.02-1.45,1.19-.97,1.79-2.47,1.79-4.49,0-1.08-.15-2.01-.44-2.8-.29-.79-.78-1.5-1.45-2.13-.68-.63-1.57-1.2-2.67-1.72-1.11-.52-2.47-1.05-4.09-1.59-2.16-.72-4.03-1.52-5.61-2.4-1.58-.88-2.89-1.88-3.95-3.01-1.06-1.12-1.83-2.43-2.33-3.92-.5-1.48-.74-3.24-.74-5.27,0-4.73,1.33-8.27,3.98-10.64,2.66-2.36,6.3-3.55,10.94-3.55,2.16,0,4.15.24,5.98.71,1.82.47,3.4,1.24,4.73,2.3,1.33,1.06,2.36,2.41,3.11,4.05.74,1.64,1.12,3.61,1.12,5.91v1.35h-9.32c0-2.3-.4-4.06-1.22-5.3-.81-1.24-2.16-1.86-4.05-1.86-1.08,0-1.98.16-2.7.47-.72.31-1.29.73-1.72,1.25-.43.52-.72,1.11-.88,1.79-.16.68-.24,1.37-.24,2.09,0,1.49.31,2.74.95,3.75.63,1.01,1.98,1.95,4.05,2.8l7.5,3.24c1.8.81,3.3,1.65,4.49,2.53,1.19.88,2.14,1.82,2.84,2.84.7,1.01,1.18,2.13,1.45,3.34.27,1.22.41,2.57.41,4.05,0,5.09-1.47,8.83-4.42,11.21-2.95,2.39-7.06,3.58-12.33,3.58s-9.42-1.23-11.79-3.68c-2.36-2.45-3.55-5.91-3.55-10.37v-1.96h9.73Z"/>
  <path class="cls-4" d="M1.67,99.69l29.45.03c6.57,0,11.72,1.71,15.44,5.11,3.72,3.4,5.58,8.49,5.58,15.28,0,5.32-1.08,9.65-3.22,13.01-2.15,3.36-5.47,5.51-9.97,6.47v.22c2.73.37,4.91,1.06,6.53,2.05,1.62,1,2.89,2.44,3.82,4.32.92,1.88,1.53,4.26,1.82,7.14.29,2.88.47,6.42.54,10.63.07,4.21.31,7.42.71,9.63.4,2.21,1.34,3.73,2.82,4.54v.66s-17.27-.02-17.27-.02c-.81-1.11-1.33-2.38-1.55-3.82-.22-1.44-.37-2.93-.44-4.48l-.43-15.17c-.15-3.1-.94-5.54-2.37-7.31-1.44-1.77-3.78-2.66-7.03-2.66h-8.53s-.03,33.43-.03,33.43H1.6s.07-79.07.07-79.07ZM17.59,134.25h6.64c3.84,0,6.79-.89,8.86-2.7,2.07-1.81,3.1-4.85,3.11-9.13,0-7.31-3.68-10.96-11.06-10.97h-7.53s-.02,22.8-.02,22.8Z"/>
  <path class="cls-4" d="M76.41,99.76l19.71.02,20.86,79.07h-16.61s-3.64-16.74-3.64-16.74l-21.04-.02-3.67,16.71h-16.61s21-79.05,21-79.05ZM78.47,149.03h15.5s-7.61-35.53-7.61-35.53h-.22l-7.67,35.53Z"/>
  <path class="cls-4" d="M121.14,99.8l26.13.02c5.54,0,10,.91,13.4,2.72,3.39,1.81,6.03,4.4,7.91,7.76,1.88,3.36,3.15,7.4,3.81,12.13.66,4.73.99,10.01.98,15.83,0,7.01-.44,13.07-1.29,18.16-.85,5.09-2.32,9.3-4.38,12.62-2.07,3.32-4.84,5.79-8.31,7.41-3.47,1.62-7.86,2.43-13.18,2.42l-25.13-.02.07-79.05ZM137.03,167.13h7.09c2.73,0,4.96-.47,6.7-1.43,1.74-.96,3.1-2.54,4.1-4.76,1-2.21,1.67-5.13,2-8.75.33-3.61.5-8.12.51-13.51,0-4.5-.14-8.43-.43-11.79-.29-3.36-.9-6.18-1.82-8.47-.92-2.29-2.29-4.01-4.09-5.15-1.81-1.15-4.23-1.72-7.25-1.72h-6.75s-.05,55.58-.05,55.58Z"/>
  <rect class="cls-4" x="206.81" y="99.88" width="15.94" height="79.06"/>
  <polygon class="cls-4" points="250.8 99.91 270.02 154.07 270.24 154.07 270.29 99.93 284.9 99.94 284.83 179 266.67 178.98 247.23 123.6 247.01 123.6 246.96 178.97 232.35 178.95 232.42 99.9 250.8 99.91"/>
</svg>